<?xml version="1.0" encoding="UTF-8"?>
<svg xmlns="http://www.w3.org/2000/svg" viewBox="0 0 1290 2796" font-family="system-ui,-apple-system,Segoe UI,Roboto,sans-serif">
<defs>
<linearGradient id="bg" x1="0" y1="0" x2="0" y2="1"><stop offset="0" stop-color="#0F1115"/><stop offset="1" stop-color="#141826"/></linearGradient>
<linearGradient id="cap" x1="0" y1="0" x2="1" y2="0"><stop offset="0" stop-color="#F5A623"/><stop offset="1" stop-color="#E8C14B"/></linearGradient>
<linearGradient id="sh" x1="0" y1="0" x2="0" y2="1"><stop offset="0" stop-color="#fff" stop-opacity=".18"/><stop offset=".5" stop-color="#fff" stop-opacity="0"/><stop offset="1" stop-opacity=".22"/></linearGradient>
<filter id="sd" x="-5%" y="-5%" width="110%" height="120%"><feGaussianBlur in="SourceAlpha" stdDeviation="5"/><feOffset dy="4" result="o"/><feComponentTransfer><feFuncA type="linear" slope=".4"/></feComponentTransfer><feMerge><feMergeNode/><feMergeNode in="SourceGraphic"/></feMerge></filter>
</defs>
<rect width="1290" height="2796" rx="80" fill="#05060A"/>
<rect x="16" y="16" width="1258" height="2764" rx="68" fill="url(#bg)"/>
<g fill="#E8ECF0">
<text x="110" y="78" font-size="36" font-weight="700">09:41</text>
<rect x="1040" y="52" width="8" height="14" rx="2"/><rect x="1054" y="46" width="8" height="20" rx="2"/><rect x="1068" y="40" width="8" height="26" rx="2"/><rect x="1082" y="34" width="8" height="32" rx="2"/>
<rect x="1162" y="42" width="56" height="26" rx="6" fill="none" stroke="#E8ECF0" stroke-width="3"/><rect x="1166" y="46" width="42" height="18" rx="3" fill="#2ECC71"/><rect x="1220" y="50" width="4" height="10" rx="1"/>
</g>
<path d="M1110 60q15-22 36 0M1118 50q12-16 28 0" stroke="#E8ECF0" stroke-width="5" fill="none" stroke-linecap="round"/>
<circle cx="1128" cy="64" r="3" fill="#E8ECF0"/>
<rect x="545" y="36" width="200" height="44" rx="22"/>

<rect x="40" y="120" width="1210" height="180" rx="22" fill="#1A1D26" stroke="#2C3354" stroke-width="2"/>
<path d="M116 210l-30-30 30-30" stroke="#E8ECF0" stroke-width="6" fill="none" stroke-linecap="round" stroke-linejoin="round"/>
<text x="160" y="235" fill="#E8ECF0" font-size="56" font-weight="800">Cięcie z prętów</text>
<g transform="translate(1095 178)" stroke="#E8C14B" stroke-width="6" fill="none" stroke-linecap="round"><circle r="14"/><circle cx="60" cy="-30" r="14"/><circle cx="60" cy="30" r="14"/><line x1="12" y1="-8" x2="48" y2="-24"/><line x1="12" y1="8" x2="48" y2="24"/></g>
<g fill="#9BA3C7"><circle cx="1190" cy="200" r="7"/><circle cx="1190" cy="225" r="7"/><circle cx="1190" cy="250" r="7"/></g>

<g transform="translate(40 330)">
<rect width="1210" height="90" rx="20" fill="#1A1D26" stroke="#2C3354" stroke-width="2"/>
<text x="28" y="58" fill="#9BA3C7" font-size="32" font-weight="600">Długość pręta:</text>
<rect x="280" y="18" width="170" height="54" rx="27" fill="#F5A623"/>
<text x="365" y="55" fill="#0F1115" font-size="32" font-weight="800" text-anchor="middle">6 m</text>
<rect x="465" y="18" width="170" height="54" rx="27" fill="#0F1115" stroke="#2C3354" stroke-width="2"/>
<text x="550" y="55" fill="#9BA3C7" font-size="32" font-weight="700" text-anchor="middle">12 m</text>
<text x="680" y="40" fill="#55607A" font-size="24" font-weight="500">Profil:</text>
<text x="680" y="68" fill="#E8ECF0" font-size="26" font-weight="700">Ø 60.3 × 3.2 S235</text>
<text x="1020" y="40" fill="#55607A" font-size="24" font-weight="500">Rzaz:</text>
<text x="1020" y="68" fill="#E8ECF0" font-size="26" font-weight="700">piła 2 mm</text>
</g>

<g transform="translate(40 450)" filter="url(#sd)">
<rect width="1210" height="280" rx="24" fill="#1A1D26" stroke="#2C3354" stroke-width="2"/>
<text x="32" y="60" fill="#55607A" font-size="26" font-weight="600" letter-spacing="3">PODSUMOWANIE PAKOWANIA</text>
<g transform="translate(28 88)">
<rect width="370" height="160" rx="18" fill="#0F1115" stroke="#2C3354"/>
<text x="24" y="44" fill="#9BA3C7" font-size="24" font-weight="600">Sztangi 6 m</text>
<text x="24" y="108" fill="#E8C14B" font-size="72" font-weight="900">3</text>
<text x="168" y="108" fill="#55607A" font-size="32" font-weight="600">szt.</text>
<rect x="24" y="126" width="322" height="10" rx="5" fill="#F5A623"/>
<rect x="390" width="370" height="160" rx="18" fill="#0F1115" stroke="#2C3354"/>
<text x="414" y="44" fill="#9BA3C7" font-size="24" font-weight="600">Wykorzystane</text>
<text x="414" y="108" fill="#2ECC71" font-size="60" font-weight="900">17.4</text>
<text x="588" y="108" fill="#55607A" font-size="32" font-weight="600">/ 18 m</text>
<rect x="414" y="126" width="322" height="10" rx="5" fill="#2C3354"/>
<rect x="414" y="126" width="312" height="10" rx="5" fill="#2ECC71"/>
<rect x="780" width="370" height="160" rx="18" fill="#0F1115" stroke="#2C3354"/>
<text x="804" y="44" fill="#9BA3C7" font-size="24" font-weight="600">Scrap (odpad)</text>
<text x="804" y="108" fill="#F5A623" font-size="60" font-weight="900">600</text>
<text x="970" y="108" fill="#55607A" font-size="32" font-weight="600">mm · 3%</text>
<rect x="804" y="126" width="322" height="10" rx="5" fill="#2C3354"/>
<rect x="804" y="126" width="32" height="10" rx="5" fill="#F5A623"/>
</g>
</g>

<text x="40" y="792" fill="#9BA3C7" font-size="28" font-weight="700" letter-spacing="2">PLAN CIĘCIA · 6 m / pręt</text>
<text x="1250" y="792" fill="#55607A" font-size="24" font-weight="600" text-anchor="end">skala 1 : 12</text>

<g transform="translate(40 810)" filter="url(#sd)">
<rect width="1210" height="290" rx="22" fill="#1A1D26" stroke="#2C3354" stroke-width="2"/>
<text x="28" y="58" fill="#E8ECF0" font-size="36" font-weight="800">SZTANGA 1</text>
<text x="260" y="58" fill="#9BA3C7" font-size="28" font-weight="600">6 cięć · 5900 mm wykorzystane</text>
<text x="1182" y="58" fill="#F5A623" font-size="28" font-weight="800" text-anchor="end">SCRAP 100 mm</text>
<g font-size="20" fill="#55607A" font-weight="600"><text x="40" y="100">0</text><text x="228" y="100">1 m</text><text x="418" y="100">2 m</text><text x="608" y="100">3 m</text><text x="798" y="100">4 m</text><text x="988" y="100">5 m</text><text x="1152" y="100">6 m</text></g>
<g transform="translate(40 130)" stroke="#0F1115" stroke-width="2">
<rect width="275.5" height="110" fill="#3D8BFD"/>
<rect x="275.5" width="262.2" height="110" fill="#2ECC71"/>
<rect x="537.7" width="228" height="110" fill="#22D3EE"/>
<rect x="765.7" width="169.1" height="110" fill="#E8C14B"/>
<rect x="934.8" width="110.2" height="110" fill="#C026D3"/>
<rect x="1045" width="76" height="110" fill="#F5A623"/>
<rect x="1121" width="19" height="110" fill="#55607A"/>
<rect width="1140" height="110" fill="url(#sh)"/>
<g font-size="22" font-weight="800" fill="#0F1115" text-anchor="middle"><text x="137" y="65">1450</text><text x="407" y="65">1380</text><text x="652" y="65">1200</text><text x="850" y="65">890</text><text x="990" y="65">580</text><text x="1083" y="65">400</text></g>
</g>
</g>

<g transform="translate(40 1120)" filter="url(#sd)">
<rect width="1210" height="290" rx="22" fill="#1A1D26" stroke="#2C3354" stroke-width="2"/>
<text x="28" y="58" fill="#E8ECF0" font-size="36" font-weight="800">SZTANGA 2</text>
<text x="260" y="58" fill="#9BA3C7" font-size="28" font-weight="600">4 cięcia · 5900 mm wykorzystane</text>
<text x="1182" y="58" fill="#F5A623" font-size="28" font-weight="800" text-anchor="end">SCRAP 100 mm</text>
<g font-size="20" fill="#55607A" font-weight="600"><text x="40" y="100">0</text><text x="228" y="100">1 m</text><text x="418" y="100">2 m</text><text x="608" y="100">3 m</text><text x="798" y="100">4 m</text><text x="988" y="100">5 m</text><text x="1152" y="100">6 m</text></g>
<g transform="translate(40 130)" stroke="#0F1115" stroke-width="2">
<rect width="342" height="110" fill="#3D8BFD"/>
<rect x="342" width="313.5" height="110" fill="#2ECC71"/>
<rect x="655.5" width="275.5" height="110" fill="#22D3EE"/>
<rect x="931" width="190" height="110" fill="#E8C14B"/>
<rect x="1121" width="19" height="110" fill="#55607A"/>
<rect width="1140" height="110" fill="url(#sh)"/>
<g font-size="24" font-weight="800" fill="#0F1115" text-anchor="middle"><text x="171" y="65">1800</text><text x="498" y="65">1650</text><text x="793" y="65">1450</text><text x="1026" y="65">1000</text></g>
</g>
</g>

<g transform="translate(40 1430)" filter="url(#sd)">
<rect width="1210" height="290" rx="22" fill="#1A1D26" stroke="#2C3354" stroke-width="2"/>
<text x="28" y="58" fill="#E8ECF0" font-size="36" font-weight="800">SZTANGA 3</text>
<text x="260" y="58" fill="#9BA3C7" font-size="28" font-weight="600">3 cięcia · 5600 mm wykorzystane</text>
<text x="1182" y="58" fill="#E74C3C" font-size="28" font-weight="800" text-anchor="end">SCRAP 400 mm</text>
<g font-size="20" fill="#55607A" font-weight="600"><text x="40" y="100">0</text><text x="228" y="100">1 m</text><text x="418" y="100">2 m</text><text x="608" y="100">3 m</text><text x="798" y="100">4 m</text><text x="988" y="100">5 m</text><text x="1152" y="100">6 m</text></g>
<g transform="translate(40 130)" stroke="#0F1115" stroke-width="2">
<rect width="418" height="110" fill="#3D8BFD"/>
<rect x="418" width="399" height="110" fill="#2ECC71"/>
<rect x="817" width="247" height="110" fill="#22D3EE"/>
<rect x="1064" width="76" height="110" fill="#E74C3C"/>
<rect width="1140" height="110" fill="url(#sh)"/>
<g font-size="24" font-weight="800" fill="#0F1115" text-anchor="middle"><text x="209" y="65">2200</text><text x="617" y="65">2100</text><text x="940" y="65">1300</text></g>
<text x="1102" y="68" fill="#fff" font-size="20" font-weight="800" text-anchor="middle">400</text>
</g>
</g>

<g transform="translate(40 1740)">
<rect width="1210" height="120" rx="20" fill="#1A1D26" stroke="#2C3354" stroke-width="2"/>
<g font-size="22" font-weight="700" fill="#9BA3C7">
<rect x="28" y="30" width="28" height="28" rx="4" fill="#3D8BFD"/><text x="68" y="52">Element A</text>
<rect x="208" y="30" width="28" height="28" rx="4" fill="#2ECC71"/><text x="248" y="52">Element B</text>
<rect x="388" y="30" width="28" height="28" rx="4" fill="#22D3EE"/><text x="428" y="52">Element C</text>
<rect x="568" y="30" width="28" height="28" rx="4" fill="#E8C14B"/><text x="608" y="52">Element D</text>
<rect x="748" y="30" width="28" height="28" rx="4" fill="#C026D3"/><text x="788" y="52">Element E</text>
<rect x="928" y="30" width="28" height="28" rx="4" fill="#55607A"/><text x="968" y="52">Scrap</text>
</g>
<g font-size="22" font-weight="600" fill="#55607A">
<text x="28" y="98">Kąt 90° · Rzaz 2 mm uwzględniony · Tol. ±1 mm · Stempel JK-014 / WP-022</text>
</g>
</g>

<g transform="translate(40 1880)">
<rect width="1210" height="170" rx="22" fill="#1A1D26" stroke="#2C3354" stroke-width="2"/>
<circle cx="80" cy="85" r="46" fill="#0F1115" stroke="#F5A623" stroke-width="3"/>
<text x="80" y="100" fill="#E8C14B" font-size="36" font-weight="900" text-anchor="middle">JK</text>
<text x="156" y="68" fill="#E8ECF0" font-size="32" font-weight="800">Operator: JK-014 / WP-022</text>
<text x="156" y="108" fill="#9BA3C7" font-size="26" font-weight="600">Piła taśmowa Bomar · 60 m/min · partia 2026-06-12</text>
<text x="156" y="142" fill="#55607A" font-size="24" font-weight="500">Rura S235 Ø 60.3 × 3.2 · łącznie 18 m / 36 kg</text>
<rect x="980" y="58" width="200" height="60" rx="30" fill="#0F1115" stroke="#2ECC71" stroke-width="2"/>
<circle cx="1010" cy="88" r="9" fill="#2ECC71"/>
<text x="1030" y="98" fill="#2ECC71" font-size="26" font-weight="800">ZATWIERDZONO</text>
</g>

<g transform="translate(40 2080)">
<rect width="385" height="120" rx="20" fill="#1A1D26" stroke="#2C3354" stroke-width="2"/>
<g transform="translate(40 36)" stroke="#9BA3C7" stroke-width="5" fill="none"><rect width="38" height="48" rx="4"/><rect x="14" y="-14" width="38" height="48" rx="4" fill="#1A1D26"/></g>
<text x="124" y="78" fill="#E8ECF0" font-size="36" font-weight="800">Kopiuj</text>
<rect x="412" width="386" height="120" rx="20" fill="#F5A623"/>
<g transform="translate(456 36)" stroke="#0F1115" stroke-width="5" fill="none"><path d="M0 0h36l12 12v36h-48z"/><line x1="0" y1="20" x2="48" y2="20"/></g>
<text x="540" y="78" fill="#0F1115" font-size="36" font-weight="900">PDF · Drukuj</text>
<rect x="825" width="385" height="120" rx="20" fill="#1A1D26" stroke="#E8C14B" stroke-width="2"/>
<g transform="translate(866 32)" stroke="#E8C14B" stroke-width="5" fill="none" stroke-linecap="round"><circle r="11"/><circle cx="40" cy="-20" r="11"/><circle cx="40" cy="20" r="11"/><line x1="10" y1="-6" x2="32" y2="-16"/><line x1="10" y1="6" x2="32" y2="16"/></g>
<text x="960" y="78" fill="#E8C14B" font-size="36" font-weight="800">Udostępnij</text>
</g>

<g transform="translate(40 2230)">
<rect width="1210" height="100" rx="20" fill="#0F1115" stroke="#F5A623" stroke-width="2" stroke-dasharray="6 6"/>
<circle cx="56" cy="50" r="22" fill="#F5A623"/>
<text x="56" y="62" fill="#0F1115" font-size="30" font-weight="900" text-anchor="middle">i</text>
<text x="100" y="44" fill="#E8ECF0" font-size="26" font-weight="700">First-Fit Decreasing — pakowanie z dokładnością do 1 mm.</text>
<text x="100" y="80" fill="#9BA3C7" font-size="24" font-weight="500">Zamów: 3 × pręt 6 m S235 Ø 60.3 × 3.2 · 18 m / 36 kg</text>
</g>

<rect y="2530" width="1290" height="200" fill="url(#cap)"/>
<text x="645" y="2628" fill="#0F1115" font-size="64" font-weight="900" text-anchor="middle">Tnij z mniejszą stratą — 3% scrap.</text>
<text x="645" y="2690" fill="#0F1115" font-size="44" font-weight="600" text-anchor="middle" opacity=".82">Cut smarter — 3% scrap loss.</text>
<rect x="495" y="2752" width="300" height="10" rx="5" fill="#E8ECF0" opacity=".75"/>
</svg>
