<?xml version="1.0" encoding="UTF-8"?>
<svg xmlns="http://www.w3.org/2000/svg" viewBox="0 0 1290 2796" font-family="system-ui, -apple-system, Segoe UI, Roboto, sans-serif">
<defs>
<linearGradient id="cap" x1="0" y1="0" x2="1" y2="0"><stop offset="0" stop-color="#F5A623"/><stop offset="1" stop-color="#E8C14B"/></linearGradient>
<linearGradient id="tol" x1="0" y1="0" x2="1" y2="0"><stop offset="0" stop-color="#E74C3C"/><stop offset=".18" stop-color="#F5A623"/><stop offset=".40" stop-color="#2ECC71"/><stop offset=".60" stop-color="#2ECC71"/><stop offset=".82" stop-color="#F5A623"/><stop offset="1" stop-color="#E74C3C"/></linearGradient>
<linearGradient id="rg" x1="0" y1="0" x2="0" y2="1"><stop offset="0" stop-color="#262B3E"/><stop offset="1" stop-color="#1A1D26"/></linearGradient>
<filter id="sh" x="-10%" y="-10%" width="120%" height="130%"><feGaussianBlur in="SourceAlpha" stdDeviation="6"/><feOffset dy="6" result="o"/><feComponentTransfer><feFuncA type="linear" slope=".45"/></feComponentTransfer><feMerge><feMergeNode/><feMergeNode in="SourceGraphic"/></feMerge></filter>
</defs>
<rect width="1290" height="2796" fill="#0F1115"/>
<rect x="6" y="6" width="1278" height="2784" rx="80" fill="#070809" stroke="#2C3354" stroke-width="2"/>
<rect x="22" y="22" width="1246" height="2752" rx="64" fill="#0F1115"/>
<text x="80" y="92" fill="#E8ECF0" font-size="36" font-weight="700">09:41</text>
<g transform="translate(1060,60)" fill="#E8ECF0"><rect x="0" y="22" width="8" height="10" rx="1"/><rect x="14" y="16" width="8" height="16" rx="1"/><rect x="28" y="9" width="8" height="23" rx="1"/><rect x="42" y="2" width="8" height="30" rx="1"/></g>
<g transform="translate(1130,68)" fill="#E8ECF0"><path d="M0,12 Q20,-8 40,12 L34,18 Q20,4 6,18 Z"/><path d="M10,22 Q20,12 30,22 L24,28 Q20,22 16,28 Z"/><circle cx="20" cy="32" r="3"/></g>
<g transform="translate(1190,62)"><rect width="60" height="28" rx="6" fill="none" stroke="#E8ECF0" stroke-width="2"/><rect x="62" y="9" width="4" height="10" rx="1" fill="#E8ECF0"/><rect x="4" y="4" width="44" height="20" rx="3" fill="#2ECC71"/></g>
<rect x="22" y="120" width="1246" height="180" fill="#1A1D26"/>
<text x="80" y="232" fill="#E8ECF0" font-size="56" font-weight="800">Heat input</text>
<text x="80" y="276" fill="#9BA3C7" font-size="26" font-weight="500">Kalkulator HI · WPS ±10% · ISO/TR 17671-1</text>
<g transform="translate(1100,200)"><circle r="36" fill="#0F1115" stroke="#2C3354" stroke-width="2"/><text y="9" text-anchor="middle" fill="#E8C14B" font-size="34" font-weight="800">i</text></g>
<g transform="translate(1190,200)"><circle r="36" fill="#0F1115" stroke="#2C3354" stroke-width="2"/><rect x="-12" y="-12" width="24" height="24" rx="3" fill="none" stroke="#F5A623" stroke-width="3"/><path d="M-6,-4 L-2,0 L8,-10" fill="none" stroke="#F5A623" stroke-width="3" stroke-linecap="round" stroke-linejoin="round"/></g>
<text x="80" y="330" fill="#55607A" font-size="24" font-weight="700" letter-spacing="2">PROCES SPAWALNICZY</text>
<g transform="translate(80,360)">
<rect width="180" height="80" rx="40" fill="#1A1D26" stroke="#2C3354" stroke-width="2"/><text x="90" y="52" text-anchor="middle" fill="#9BA3C7" font-size="32" font-weight="700">SMAW</text>
<rect x="200" width="220" height="80" rx="40" fill="#F5A623"/><text x="310" y="52" text-anchor="middle" fill="#0F1115" font-size="32" font-weight="900">GTAW</text>
<circle cx="395" cy="40" r="14" fill="#0F1115"/><path d="M388,40 L394,46 L404,34" fill="none" stroke="#F5A623" stroke-width="4" stroke-linecap="round" stroke-linejoin="round"/>
<rect x="440" width="200" height="80" rx="40" fill="#1A1D26" stroke="#2C3354" stroke-width="2"/><text x="540" y="52" text-anchor="middle" fill="#9BA3C7" font-size="32" font-weight="700">GMAW</text>
<rect x="660" width="240" height="80" rx="40" fill="#1A1D26" stroke="#2C3354" stroke-width="2"/><text x="780" y="52" text-anchor="middle" fill="#9BA3C7" font-size="32" font-weight="700">FCAW-G</text>
<rect x="920" width="160" height="80" rx="40" fill="#1A1D26" stroke="#2C3354" stroke-width="2"/><text x="1000" y="52" text-anchor="middle" fill="#9BA3C7" font-size="32" font-weight="700">SAW</text>
</g>
<text x="80" y="490" fill="#55607A" font-size="24" font-weight="700" letter-spacing="2">MATERIAŁ BAZOWY · P-No 8</text>
<g transform="translate(80,520)">
<rect width="180" height="80" rx="40" fill="#F5A623"/><text x="90" y="52" text-anchor="middle" fill="#0F1115" font-size="32" font-weight="900">316L</text>
<circle cx="160" cy="40" r="14" fill="#0F1115"/><path d="M153,40 L159,46 L169,34" fill="none" stroke="#F5A623" stroke-width="4" stroke-linecap="round" stroke-linejoin="round"/>
<rect x="200" width="180" height="80" rx="40" fill="#1A1D26" stroke="#2C3354" stroke-width="2"/><text x="290" y="52" text-anchor="middle" fill="#9BA3C7" font-size="32" font-weight="700">304L</text>
<rect x="400" width="220" height="80" rx="40" fill="#1A1D26" stroke="#2C3354" stroke-width="2"/><text x="510" y="52" text-anchor="middle" fill="#9BA3C7" font-size="32" font-weight="700">1.4571</text>
<rect x="640" width="160" height="80" rx="40" fill="#1A1D26" stroke="#2C3354" stroke-width="2"/><text x="720" y="52" text-anchor="middle" fill="#9BA3C7" font-size="32" font-weight="700">P91</text>
<rect x="820" width="160" height="80" rx="40" fill="#1A1D26" stroke="#2C3354" stroke-width="2"/><text x="900" y="52" text-anchor="middle" fill="#9BA3C7" font-size="32" font-weight="700">P22</text>
</g>
<g transform="translate(80,650)" filter="url(#sh)">
<rect width="540" height="180" rx="20" fill="#1A1D26" stroke="#2C3354" stroke-width="2"/>
<text x="32" y="50" fill="#9BA3C7" font-size="26" font-weight="700">Napięcie łuku · U</text>
<text x="32" y="130" fill="#E8ECF0" font-size="84" font-weight="900" font-family="ui-monospace,monospace">12.5</text>
<text x="320" y="130" fill="#9BA3C7" font-size="40" font-weight="600">V</text>
<text x="32" y="162" fill="#55607A" font-size="22" font-weight="500">DCEN · zakres 10–18 V</text>
<rect x="566" width="540" height="180" rx="20" fill="#1A1D26" stroke="#2C3354" stroke-width="2"/>
<text x="598" y="50" fill="#9BA3C7" font-size="26" font-weight="700">Prąd spawania · I</text>
<text x="598" y="130" fill="#E8ECF0" font-size="84" font-weight="900" font-family="ui-monospace,monospace">165</text>
<text x="804" y="130" fill="#9BA3C7" font-size="40" font-weight="600">A</text>
<text x="598" y="162" fill="#55607A" font-size="22" font-weight="500">WPS 140–180 A · root pass</text>
<rect y="200" width="540" height="180" rx="20" fill="#1A1D26" stroke="#2C3354" stroke-width="2"/>
<text x="32" y="250" fill="#9BA3C7" font-size="26" font-weight="700">Prędkość przejścia · v</text>
<text x="32" y="330" fill="#E8ECF0" font-size="84" font-weight="900" font-family="ui-monospace,monospace">110</text>
<text x="244" y="330" fill="#9BA3C7" font-size="34" font-weight="600">mm/min</text>
<text x="32" y="362" fill="#55607A" font-size="22" font-weight="500">stoper: 0:54 / 100 mm</text>
<rect x="566" y="200" width="540" height="180" rx="20" fill="#1A1D26" stroke="#2C3354" stroke-width="2"/>
<text x="598" y="250" fill="#9BA3C7" font-size="26" font-weight="700">Sprawność cieplna · η</text>
<text x="598" y="330" fill="#E8ECF0" font-size="84" font-weight="900" font-family="ui-monospace,monospace">0.80</text>
<g transform="translate(820,290)"><rect width="190" height="60" rx="30" fill="#0F1115" stroke="#2C3354" stroke-width="2"/><rect x="14" y="22" width="20" height="16" rx="3" fill="#E8C14B"/><path d="M22,22 a10,10 0 1,1 0.1,0" fill="none" stroke="#E8C14B" stroke-width="4"/><text x="50" y="40" fill="#E8C14B" font-size="26" font-weight="800">locked</text></g>
<text x="598" y="362" fill="#55607A" font-size="22" font-weight="500">GTAW · ISO/TR 17671-1 Tab. 1</text>
</g>
<g transform="translate(80,1080)" filter="url(#sh)">
<rect width="1106" height="320" rx="28" fill="url(#rg)" stroke="#F5A623" stroke-width="3"/>
<text x="40" y="64" fill="#9BA3C7" font-size="28" font-weight="700" letter-spacing="3">ENERGIA LINIOWA · HI</text>
<text x="40" y="96" fill="#55607A" font-size="22" font-weight="500">HI = (η · U · I · 60) / (v · 1000)</text>
<text x="40" y="248" fill="#F5A623" font-size="220" font-weight="900" font-family="ui-monospace,monospace" letter-spacing="-6">0.72</text>
<text x="640" y="248" fill="#E8ECF0" font-size="64" font-weight="700">kJ/mm</text>
<g transform="translate(820,80)">
<rect width="246" height="100" rx="14" fill="#0F1115" stroke="#2C3354" stroke-width="2"/>
<text x="20" y="36" fill="#55607A" font-size="20" font-weight="700" letter-spacing="2">ROOT TARGET</text>
<text x="20" y="80" fill="#2ECC71" font-size="36" font-weight="900" font-family="ui-monospace,monospace">0.65–0.85</text>
<rect y="120" width="246" height="100" rx="14" fill="#0F1115" stroke="#2C3354" stroke-width="2"/>
<text x="20" y="156" fill="#55607A" font-size="20" font-weight="700" letter-spacing="2">STATUS</text>
<circle cx="36" cy="190" r="12" fill="#2ECC71"/>
<text x="58" y="200" fill="#2ECC71" font-size="32" font-weight="900">W TOLERANCJI</text>
</g>
<g transform="translate(40,272)" font-family="ui-monospace,monospace">
<rect width="220" height="36" rx="18" fill="#0F1115" stroke="#2C3354"/><text x="14" y="26" fill="#9BA3C7" font-size="20" font-weight="700">U·I = 2062.5 W</text>
<rect x="240" width="220" height="36" rx="18" fill="#0F1115" stroke="#2C3354"/><text x="254" y="26" fill="#9BA3C7" font-size="20" font-weight="700">η·P = 1650 W</text>
<rect x="480" width="280" height="36" rx="18" fill="#0F1115" stroke="#2C3354"/><text x="494" y="26" fill="#9BA3C7" font-size="20" font-weight="700">v = 1.833 mm/s</text>
</g>
</g>
<g transform="translate(80,1440)" filter="url(#sh)">
<rect width="1106" height="360" rx="28" fill="#1A1D26" stroke="#2C3354" stroke-width="2"/>
<text x="36" y="56" fill="#E8ECF0" font-size="36" font-weight="800">Tolerancja WPS ±10%</text>
<text x="36" y="92" fill="#9BA3C7" font-size="24" font-weight="600">Zakres dopuszczalny: 0.59 – 0.79 kJ/mm · cel WPS-024-R3</text>
<rect x="36" y="160" width="1034" height="42" rx="21" fill="url(#tol)"/>
<line x1="232" y1="138" x2="232" y2="232" stroke="#9BA3C7" stroke-width="3" stroke-dasharray="6,4"/>
<text x="232" y="128" text-anchor="middle" fill="#9BA3C7" font-size="22" font-weight="800">LOW 0.59</text>
<line x1="874" y1="138" x2="874" y2="232" stroke="#9BA3C7" stroke-width="3" stroke-dasharray="6,4"/>
<text x="874" y="128" text-anchor="middle" fill="#9BA3C7" font-size="22" font-weight="800">HIGH 0.79</text>
<g transform="translate(660,128)">
<rect x="-58" y="-44" width="116" height="64" rx="14" fill="#F5A623"/>
<text text-anchor="middle" y="-4" fill="#0F1115" font-size="32" font-weight="900" font-family="ui-monospace,monospace">0.72</text>
<polygon points="-12,20 12,20 0,40" fill="#F5A623"/>
<circle cy="74" r="14" fill="#0F1115" stroke="#F5A623" stroke-width="4"/>
</g>
<g fill="#55607A" font-size="20" font-weight="700" font-family="ui-monospace,monospace">
<text x="36" y="246">0.50</text><text x="190" y="246">0.60</text><text x="392" y="246">0.70</text><text x="594" y="246">0.80</text><text x="796" y="246">0.90</text><text x="1000" y="246">1.00</text>
</g>
<g transform="translate(36,272)">
<rect width="330" height="64" rx="14" fill="#0F1115" stroke="#2C3354"/>
<text x="20" y="28" fill="#55607A" font-size="18" font-weight="700" letter-spacing="2">INTERPASS</text>
<text x="20" y="54" fill="#E8ECF0" font-size="26" font-weight="900" font-family="ui-monospace,monospace">142 °C  &lt; 175 °C</text>
<circle cx="304" cy="32" r="12" fill="#2ECC71"/>
<rect x="350" width="330" height="64" rx="14" fill="#0F1115" stroke="#2C3354"/>
<text x="370" y="28" fill="#55607A" font-size="18" font-weight="700" letter-spacing="2">PREHEAT</text>
<text x="370" y="54" fill="#E8ECF0" font-size="26" font-weight="900" font-family="ui-monospace,monospace">15 °C · min 10 °C</text>
<circle cx="654" cy="32" r="12" fill="#2ECC71"/>
<rect x="700" width="334" height="64" rx="14" fill="#0F1115" stroke="#2C3354"/>
<text x="720" y="28" fill="#55607A" font-size="18" font-weight="700" letter-spacing="2">STEMPEL · DN150</text>
<text x="720" y="54" fill="#E8C14B" font-size="26" font-weight="900" font-family="ui-monospace,monospace">JK-014 / WP-022</text>
</g>
</g>
<g transform="translate(80,1840)" filter="url(#sh)">
<rect width="1106" height="156" rx="24" fill="#1A1D26" stroke="#E8C14B" stroke-width="2"/>
<g transform="translate(60,78)">
<circle cy="-10" r="34" fill="#0F1115" stroke="#E8C14B" stroke-width="3"/>
<path d="M-14,-22 Q0,-40 14,-22 Q18,-6 6,4 L-6,4 Q-18,-6 -14,-22 Z" fill="#E8C14B" opacity=".85"/>
<rect x="-8" y="6" width="16" height="6" rx="2" fill="#E8C14B"/>
<rect x="-6" y="14" width="12" height="4" rx="2" fill="#E8C14B"/>
</g>
<text x="130" y="62" fill="#E8C14B" font-size="22" font-weight="800" letter-spacing="2">PODPOWIEDŹ WPS · P-No 8</text>
<text x="130" y="106" fill="#E8ECF0" font-size="30" font-weight="700">P-No 8 (304L) — interpass &lt;175°C, użyj L-grade ER308L</text>
<text x="130" y="138" fill="#9BA3C7" font-size="22" font-weight="500">unikać sensytyzacji (Cr-carbides), preferuj 0.65–0.85 kJ/mm na root</text>
</g>
<g transform="translate(80,2030)">
<rect width="1106" height="80" rx="40" fill="#0F1115" stroke="#2C3354" stroke-width="2"/>
<g transform="translate(34,40)" stroke="#9BA3C7" stroke-width="2" fill="none">
<rect x="-14" y="-22" width="40" height="44" rx="4"/><line x1="-6" y1="-10" x2="18" y2="-10"/><line x1="-6" y1="0" x2="18" y2="0"/><line x1="-6" y1="10" x2="12" y2="10"/>
</g>
<text x="80" y="36" fill="#55607A" font-size="20" font-weight="700" letter-spacing="3">ŹRÓDŁO</text>
<text x="80" y="66" fill="#E8ECF0" font-size="26" font-weight="700">ISO/TR 17671-1 (η) + ASME IX QW-409.1</text>
<g transform="translate(1040,40)"><circle r="22" fill="#1A1D26" stroke="#2C3354" stroke-width="2"/><path d="M-4,-8 L4,0 L-4,8" fill="none" stroke="#E8C14B" stroke-width="3" stroke-linecap="round" stroke-linejoin="round"/></g>
</g>
<g transform="translate(80,2150)">
<rect width="540" height="120" rx="28" fill="#1A1D26" stroke="#2C3354" stroke-width="2"/>
<text x="270" y="74" text-anchor="middle" fill="#E8ECF0" font-size="34" font-weight="800">Eksport PDF</text>
<rect x="566" width="540" height="120" rx="28" fill="#F5A623"/>
<text x="836" y="74" text-anchor="middle" fill="#0F1115" font-size="34" font-weight="900">Zapisz do WPS-024</text>
</g>
<g transform="translate(22,2320)">
<rect width="1246" height="156" fill="#1A1D26"/>
<line y2="0" x2="1246" stroke="#2C3354" stroke-width="2"/>
<g transform="translate(140,80)" stroke="#9BA3C7" stroke-width="3" fill="none"><rect x="-30" y="-30" width="60" height="60" rx="10"/><line x1="-30" y1="-10" x2="30" y2="-10"/></g>
<text x="140" y="160" text-anchor="middle" fill="#9BA3C7" font-size="20" font-weight="700">Projekty</text>
<g transform="translate(380,80)" stroke="#9BA3C7" stroke-width="3" fill="none"><path d="M-26,16 L-26,-6 L0,-28 L26,-6 L26,16 Z" stroke-linejoin="round"/><rect x="-8" y="-4" width="16" height="20"/></g>
<text x="380" y="160" text-anchor="middle" fill="#9BA3C7" font-size="20" font-weight="700">ISO Parser</text>
<g transform="translate(620,80)"><circle r="34" fill="#F5A623"/><path d="M-14,-2 L14,-2 M0,-16 L0,12 M-10,-22 L10,-22" stroke="#0F1115" stroke-width="4" stroke-linecap="round" fill="none"/><circle cy="14" r="4" fill="#0F1115"/></g>
<text x="620" y="160" text-anchor="middle" fill="#F5A623" font-size="22" font-weight="900">Heat Input</text>
<g transform="translate(860,80)" stroke="#9BA3C7" stroke-width="3" fill="none"><circle cy="-4" r="22"/><path d="M-22,28 Q0,4 22,28"/></g>
<text x="860" y="160" text-anchor="middle" fill="#9BA3C7" font-size="20" font-weight="700">Stempel</text>
<g transform="translate(1100,80)" stroke="#9BA3C7" stroke-width="3" fill="none"><rect x="-26" y="-24" width="52" height="48" rx="6"/><line x1="-16" y1="-12" x2="16" y2="-12"/><line x1="-16" y1="0" x2="16" y2="0"/><line x1="-16" y1="12" x2="6" y2="12"/></g>
<text x="1100" y="160" text-anchor="middle" fill="#9BA3C7" font-size="20" font-weight="700">Log</text>
</g>
<g transform="translate(22,2574)">
<rect width="1246" height="200" rx="28" fill="url(#cap)"/>
<text x="60" y="92" fill="#0F1115" font-size="64" font-weight="900">Heat input z tolerancją WPS ±10%.</text>
<text x="60" y="158" fill="#0F1115" font-size="44" font-weight="600" opacity=".85">Heat input with WPS tolerance band ±10%.</text>
</g>
<rect x="495" y="2742" width="300" height="10" rx="5" fill="#E8ECF0" opacity=".85"/>
</svg>
