<svg xmlns="http://www.w3.org/2000/svg" viewBox="0 0 1290 2796" font-family="system-ui, -apple-system, Segoe UI, Roboto, sans-serif">
  <defs>
    <linearGradient id="bgGrad" x1="0" y1="0" x2="0" y2="1">
      <stop offset="0" stop-color="#0F1115"/>
      <stop offset="1" stop-color="#141826"/>
    </linearGradient>
    <linearGradient id="capGrad" x1="0" y1="0" x2="1" y2="0">
      <stop offset="0" stop-color="#F5A623"/>
      <stop offset="1" stop-color="#E8C14B"/>
    </linearGradient>
    <linearGradient id="userBubble" x1="0" y1="0" x2="0" y2="1">
      <stop offset="0" stop-color="#F5A623"/>
      <stop offset="1" stop-color="#D88A11"/>
    </linearGradient>
    <linearGradient id="goldBadge" x1="0" y1="0" x2="1" y2="1">
      <stop offset="0" stop-color="#F5D26B"/>
      <stop offset="1" stop-color="#C99518"/>
    </linearGradient>
    <filter id="shadow" x="-20%" y="-20%" width="140%" height="140%">
      <feGaussianBlur in="SourceAlpha" stdDeviation="6"/>
      <feOffset dx="0" dy="4"/>
      <feComponentTransfer><feFuncA type="linear" slope="0.45"/></feComponentTransfer>
      <feMerge><feMergeNode/><feMergeNode in="SourceGraphic"/></feMerge>
    </filter>
  </defs>

  <!-- Phone frame -->
  <rect x="0" y="0" width="1290" height="2796" rx="80" fill="#000"/>
  <rect x="16" y="16" width="1258" height="2764" rx="68" fill="url(#bgGrad)"/>

  <!-- Status bar -->
  <text x="120" y="100" fill="#E8ECF0" font-size="44" font-weight="700">09:41</text>
  <!-- signal -->
  <g transform="translate(1040,70)" fill="#E8ECF0">
    <rect x="0" y="20" width="8" height="14" rx="2"/>
    <rect x="14" y="14" width="8" height="20" rx="2"/>
    <rect x="28" y="6" width="8" height="28" rx="2"/>
    <rect x="42" y="0" width="8" height="34" rx="2"/>
  </g>
  <!-- wifi -->
  <g transform="translate(1108,76)" fill="none" stroke="#E8ECF0" stroke-width="5" stroke-linecap="round">
    <path d="M0 16 Q22 -6 44 16"/>
    <path d="M8 24 Q22 10 36 24"/>
    <circle cx="22" cy="32" r="3" fill="#E8ECF0" stroke="none"/>
  </g>
  <!-- battery -->
  <g transform="translate(1170,74)">
    <rect x="0" y="0" width="74" height="32" rx="6" fill="none" stroke="#E8ECF0" stroke-width="3"/>
    <rect x="76" y="10" width="6" height="12" rx="2" fill="#E8ECF0"/>
    <rect x="4" y="4" width="58" height="24" rx="3" fill="#2ECC71"/>
  </g>

  <!-- AppBar -->
  <rect x="16" y="140" width="1258" height="180" fill="#161924"/>
  <line x1="60" y1="320" x2="1230" y2="320" stroke="#2C3354" stroke-width="2"/>
  <text x="80" y="240" fill="#E8ECF0" font-size="56" font-weight="800">Chat AI</text>
  <!-- PRO badge -->
  <rect x="290" y="195" width="130" height="58" rx="14" fill="url(#goldBadge)"/>
  <text x="355" y="234" fill="#1A1D26" font-size="32" font-weight="900" text-anchor="middle">PRO</text>
  <!-- subtitle -->
  <text x="80" y="290" fill="#9BA3C7" font-size="30" font-weight="500">Tutor spawalniczy • online</text>
  <!-- delete sweep -->
  <g transform="translate(1130,200)" fill="none" stroke="#E8ECF0" stroke-width="5" stroke-linecap="round" stroke-linejoin="round">
    <path d="M14 18 L70 18"/>
    <path d="M22 18 L26 70 Q26 78 34 78 L50 78 Q58 78 58 70 L62 18"/>
    <path d="M32 14 L52 14"/>
    <path d="M76 50 L100 38"/>
    <path d="M82 64 L106 56"/>
  </g>

  <!-- Welcome card -->
  <g filter="url(#shadow)">
    <rect x="60" y="360" width="1170" height="180" rx="22" fill="#1A1D26" stroke="#2C3354" stroke-width="2"/>
  </g>
  <!-- helmet icon -->
  <g transform="translate(96,402)">
    <rect x="0" y="0" width="100" height="100" rx="20" fill="#2A2030"/>
    <path d="M20 32 Q50 8 80 32 L80 70 Q80 84 66 84 L34 84 Q20 84 20 70 Z" fill="#F5A623"/>
    <rect x="28" y="40" width="44" height="18" rx="4" fill="#1A1D26"/>
    <line x1="28" y1="49" x2="72" y2="49" stroke="#E8C14B" stroke-width="2"/>
  </g>
  <text x="222" y="430" fill="#E8ECF0" font-size="32" font-weight="700">Cześć — zapytaj o spawanie / fit-up</text>
  <text x="222" y="476" fill="#9BA3C7" font-size="26">P-No, preheat, PWHT, WPS, ISO 5817…</text>
  <!-- ACTIVE chip -->
  <rect x="222" y="494" width="180" height="46" rx="23" fill="#2A2310" stroke="#E8C14B" stroke-width="2"/>
  <circle cx="248" cy="517" r="6" fill="#E8C14B"/>
  <text x="266" y="525" fill="#E8C14B" font-size="24" font-weight="700">ACTIVE</text>
  <!-- token badge -->
  <rect x="420" y="494" width="220" height="46" rx="23" fill="#1A1D26" stroke="#2C3354" stroke-width="2"/>
  <text x="442" y="525" fill="#9BA3C7" font-size="22" font-weight="600">Haiku • ASME/ISO/AWS</text>

  <!-- Date divider -->
  <line x1="60" y1="600" x2="560" y2="600" stroke="#2C3354" stroke-width="2"/>
  <text x="645" y="610" fill="#55607A" font-size="24" font-weight="600" text-anchor="middle">Dzisiaj, 09:38</text>
  <line x1="730" y1="600" x2="1230" y2="600" stroke="#2C3354" stroke-width="2"/>

  <!-- User bubble (right) -->
  <g filter="url(#shadow)">
    <path d="M520 660 L1190 660 Q1220 660 1220 690 L1220 800 Q1220 830 1190 830 L1180 830 L1180 854 L1148 830 L550 830 Q520 830 520 800 Z" fill="url(#userBubble)"/>
  </g>
  <text x="558" y="720" fill="#1A1100" font-size="32" font-weight="800">P91 — jaki preheat dla DN200 SCH80?</text>
  <text x="558" y="772" fill="#3A2A05" font-size="24" font-weight="600">Filler match + PWHT temperatura, czas hold.</text>
  <text x="1170" y="816" fill="#3A2A05" font-size="22" font-weight="600" text-anchor="end">09:38 ✓✓</text>

  <!-- AI bubble (left) -->
  <g filter="url(#shadow)">
    <path d="M100 900 L820 900 Q850 900 850 930 L850 1310 Q850 1340 820 1340 L150 1340 L150 1366 L120 1340 L100 1340 Q70 1340 70 1310 L70 930 Q70 900 100 900 Z" fill="#1A1D26" stroke="#2C3354" stroke-width="2"/>
  </g>
  <!-- AI avatar -->
  <circle cx="130" cy="950" r="28" fill="#2A2310" stroke="#E8C14B" stroke-width="2"/>
  <text x="130" y="960" fill="#E8C14B" font-size="26" font-weight="800" text-anchor="middle">AI</text>
  <text x="178" y="958" fill="#E8C14B" font-size="24" font-weight="700">Polier • Senior WPS</text>
  <text x="178" y="988" fill="#55607A" font-size="20" font-weight="600">odp. w 1.8s • 412 tok.</text>

  <!-- AI message text -->
  <text x="110" y="1050" fill="#E8ECF0" font-size="28" font-weight="600">Dla P91 (P-No 5, Group 1) preheat</text>
  <text x="110" y="1090" fill="#E8ECF0" font-size="28" font-weight="600">
    <tspan>200–250 </tspan>
    <tspan fill="#F5A623" font-weight="800">°C</tspan>
    <tspan>, interpass max 300 </tspan>
    <tspan fill="#F5A623" font-weight="800">°C</tspan>
    <tspan>.</tspan>
  </text>
  <text x="110" y="1130" fill="#E8ECF0" font-size="28" font-weight="600">
    <tspan fill="#E8C14B" font-weight="800">PWHT 750–770 °C</tspan>
    <tspan> wymagane,</tspan>
  </text>
  <text x="110" y="1170" fill="#E8ECF0" font-size="28" font-weight="600">hold ≥ 1 h/25 mm grubości ścianki.</text>
  <text x="110" y="1216" fill="#E8ECF0" font-size="28" font-weight="600">Niska zawartość wodoru — użyj</text>
  <text x="110" y="1256" fill="#E8ECF0" font-size="28" font-weight="600">
    <tspan fill="#F5A623" font-weight="800">E9015-B9 H4R</tspan>
    <tspan>, prąd 110–140 A DC+.</tspan>
  </text>
  <!-- citation chip -->
  <rect x="110" y="1280" width="430" height="48" rx="14" fill="#10141E" stroke="#2C3354" stroke-width="2"/>
  <g transform="translate(124,1294)" fill="none" stroke="#9BA3C7" stroke-width="3" stroke-linecap="round">
    <rect x="0" y="0" width="20" height="22" rx="3"/>
    <line x1="4" y1="6" x2="16" y2="6"/>
    <line x1="4" y1="11" x2="16" y2="11"/>
    <line x1="4" y1="16" x2="12" y2="16"/>
  </g>
  <text x="156" y="1312" fill="#9BA3C7" font-size="24" font-weight="700">ASME B31.3 • Table 330.1.1</text>
  <text x="820" y="1330" fill="#55607A" font-size="20" font-weight="600" text-anchor="end">09:39 • źródło zweryfikowane</text>

  <!-- Suggestion chips row -->
  <g>
    <rect x="60" y="1400" width="240" height="80" rx="40" fill="#1A1D26" stroke="#E8C14B" stroke-width="2"/>
    <text x="180" y="1450" fill="#E8C14B" font-size="28" font-weight="700" text-anchor="middle">PWHT czas</text>

    <rect x="320" y="1400" width="320" height="80" rx="40" fill="#1A1D26" stroke="#2C3354" stroke-width="2"/>
    <text x="480" y="1450" fill="#E8ECF0" font-size="28" font-weight="700" text-anchor="middle">Hardness limits</text>

    <rect x="660" y="1400" width="290" height="80" rx="40" fill="#1A1D26" stroke="#2C3354" stroke-width="2"/>
    <text x="805" y="1450" fill="#E8ECF0" font-size="28" font-weight="700" text-anchor="middle">Filler match</text>

    <rect x="970" y="1400" width="220" height="80" rx="40" fill="#1A1D26" stroke="#2C3354" stroke-width="2"/>
    <text x="1080" y="1450" fill="#E8ECF0" font-size="28" font-weight="700" text-anchor="middle">ISO 5817</text>
  </g>

  <!-- Follow-up user bubble (smaller) -->
  <g filter="url(#shadow)">
    <path d="M680 1520 L1190 1520 Q1220 1520 1220 1550 L1220 1640 Q1220 1670 1190 1670 L1180 1670 L1180 1694 L1148 1670 L710 1670 Q680 1670 680 1640 Z" fill="url(#userBubble)"/>
  </g>
  <text x="708" y="1580" fill="#1A1100" font-size="30" font-weight="800">A jakie WPS dla T-joint?</text>
  <text x="708" y="1622" fill="#3A2A05" font-size="22" font-weight="600">Stamp JK-014 • WP-022</text>
  <text x="1170" y="1660" fill="#3A2A05" font-size="20" font-weight="600" text-anchor="end">09:41 ✓✓</text>

  <!-- AI typing indicator card -->
  <g filter="url(#shadow)">
    <rect x="70" y="1730" width="360" height="120" rx="22" fill="#1A1D26" stroke="#2C3354" stroke-width="2"/>
  </g>
  <circle cx="110" cy="1790" r="22" fill="#2A2310" stroke="#E8C14B" stroke-width="2"/>
  <text x="110" y="1798" fill="#E8C14B" font-size="20" font-weight="800" text-anchor="middle">AI</text>
  <text x="150" y="1782" fill="#9BA3C7" font-size="22" font-weight="700">Polier pisze…</text>
  <circle cx="155" cy="1815" r="8" fill="#E8C14B"/>
  <circle cx="185" cy="1815" r="8" fill="#9BA3C7"/>
  <circle cx="215" cy="1815" r="8" fill="#55607A"/>
  <text x="260" y="1822" fill="#55607A" font-size="20" font-weight="600">analizuje WPS bazę…</text>

  <!-- Knowledge base inline preview -->
  <g filter="url(#shadow)">
    <rect x="60" y="1890" width="1170" height="220" rx="22" fill="#1A1D26" stroke="#2C3354" stroke-width="2"/>
  </g>
  <text x="90" y="1944" fill="#9BA3C7" font-size="24" font-weight="700">PODŁĄCZONA BAZA WIEDZY</text>
  <!-- ASME -->
  <g>
    <rect x="90" y="1972" width="260" height="110" rx="14" fill="#10141E" stroke="#2C3354" stroke-width="2"/>
    <rect x="106" y="1990" width="60" height="60" rx="10" fill="#2A2310"/>
    <text x="136" y="2030" fill="#E8C14B" font-size="22" font-weight="900" text-anchor="middle">ASME</text>
    <text x="180" y="2010" fill="#E8ECF0" font-size="22" font-weight="800">ASME B31.3</text>
    <text x="180" y="2040" fill="#9BA3C7" font-size="18" font-weight="600">Process Piping</text>
    <text x="180" y="2068" fill="#55607A" font-size="16" font-weight="600">2022 • 412p</text>
  </g>
  <!-- ISO -->
  <g>
    <rect x="370" y="1972" width="260" height="110" rx="14" fill="#10141E" stroke="#2C3354" stroke-width="2"/>
    <rect x="386" y="1990" width="60" height="60" rx="10" fill="#2A2310"/>
    <text x="416" y="2030" fill="#E8C14B" font-size="24" font-weight="900" text-anchor="middle">ISO</text>
    <text x="460" y="2010" fill="#E8ECF0" font-size="22" font-weight="800">ISO 5817</text>
    <text x="460" y="2040" fill="#9BA3C7" font-size="18" font-weight="600">Quality levels</text>
    <text x="460" y="2068" fill="#55607A" font-size="16" font-weight="600">B/C/D • EN-PL</text>
  </g>
  <!-- AWS -->
  <g>
    <rect x="650" y="1972" width="260" height="110" rx="14" fill="#10141E" stroke="#2C3354" stroke-width="2"/>
    <rect x="666" y="1990" width="60" height="60" rx="10" fill="#2A2310"/>
    <text x="696" y="2030" fill="#E8C14B" font-size="22" font-weight="900" text-anchor="middle">AWS</text>
    <text x="740" y="2010" fill="#E8ECF0" font-size="22" font-weight="800">AWS D1.1</text>
    <text x="740" y="2040" fill="#9BA3C7" font-size="18" font-weight="600">Structural Steel</text>
    <text x="740" y="2068" fill="#55607A" font-size="16" font-weight="600">2025 ed.</text>
  </g>
  <!-- EN -->
  <g>
    <rect x="930" y="1972" width="270" height="110" rx="14" fill="#10141E" stroke="#2C3354" stroke-width="2"/>
    <rect x="946" y="1990" width="60" height="60" rx="10" fill="#2A2310"/>
    <text x="976" y="2030" fill="#E8C14B" font-size="24" font-weight="900" text-anchor="middle">EN</text>
    <text x="1020" y="2010" fill="#E8ECF0" font-size="22" font-weight="800">EN ISO 15614</text>
    <text x="1020" y="2040" fill="#9BA3C7" font-size="18" font-weight="600">WPQR procedure</text>
    <text x="1020" y="2068" fill="#55607A" font-size="16" font-weight="600">Part 1</text>
  </g>

  <!-- Composer -->
  <rect x="16" y="2160" width="1258" height="240" fill="#10141E"/>
  <line x1="16" y1="2160" x2="1274" y2="2160" stroke="#2C3354" stroke-width="2"/>
  <!-- attach -->
  <g transform="translate(80,2230)" fill="none" stroke="#9BA3C7" stroke-width="5" stroke-linecap="round" stroke-linejoin="round">
    <path d="M40 8 L12 36 Q-4 52 12 68 Q28 84 44 68 L72 40 Q88 24 72 8 Q56 -8 40 8 L20 28"/>
  </g>
  <!-- input -->
  <rect x="170" y="2210" width="970" height="100" rx="50" fill="#1A1D26" stroke="#2C3354" stroke-width="2"/>
  <text x="210" y="2273" fill="#55607A" font-size="32" font-weight="600">Napisz pytanie…</text>
  <!-- mic icon -->
  <g transform="translate(1060,2238)" fill="none" stroke="#9BA3C7" stroke-width="4" stroke-linecap="round">
    <rect x="0" y="0" width="28" height="50" rx="14" fill="#9BA3C7" stroke="none"/>
    <path d="M-8 36 Q-8 56 14 60 Q36 56 36 36"/>
    <line x1="14" y1="60" x2="14" y2="74"/>
  </g>
  <!-- send button -->
  <circle cx="1188" cy="2260" r="56" fill="#F5A623" filter="url(#shadow)"/>
  <path d="M1162 2260 L1212 2260 M1196 2240 L1216 2260 L1196 2280" stroke="#FFFFFF" stroke-width="6" stroke-linecap="round" stroke-linejoin="round" fill="none"/>

  <!-- Caption banner -->
  <rect x="0" y="2596" width="1290" height="200" fill="url(#capGrad)"/>
  <rect x="0" y="2596" width="1290" height="6" fill="#1A1100" opacity="0.25"/>
  <text x="645" y="2690" fill="#1A1100" font-size="64" font-weight="900" text-anchor="middle">AI tutor z bazą ASME, ISO, AWS, EN.</text>
  <text x="645" y="2752" fill="#3A2A05" font-size="44" font-weight="600" text-anchor="middle">AI tutor with ASME, ISO, AWS, EN knowledge.</text>

  <!-- Home indicator -->
  <rect x="495" y="2740" width="300" height="10" rx="5" fill="#2C3354" opacity="0.0"/>
</svg>
